<svg width="605" height="749" viewBox="0 0 605 749" fill="none" xmlns="http://www.w3.org/2000/svg">
<g filter="url(#filter0_d_47_212)">
<path d="M339.607 40C193.927 40 83.9791 154.018 83.9791 306.501C83.9791 310.622 85.3534 314.743 88.1021 317.491L103.22 332.602L44.123 399.914C40 404.035 40 408.156 40 413.651C40 419.146 44.123 421.893 48.2461 424.641L86.7277 442.499V453.489C86.7277 458.984 89.4764 464.478 93.5995 467.226L103.22 472.721V485.084C103.22 490.579 105.969 496.074 110.092 498.821L118.338 504.316V555.144C118.338 563.386 125.209 570.255 133.455 570.255H280.51L413.822 704.879C416.571 707.626 420.694 709 424.817 709C426.191 709 428.94 709 430.314 707.626C435.811 704.879 439.935 699.384 439.935 693.889V545.528C439.935 537.285 433.063 530.417 424.817 530.417C416.571 530.417 409.699 537.285 409.699 545.528V655.425L298.377 542.78C295.628 540.033 291.505 538.659 287.382 538.659H151.322V494.7C151.322 489.205 148.573 483.71 144.45 480.963L136.204 475.468V463.105C136.204 457.61 133.455 452.115 129.332 449.368L119.712 443.873V431.509C119.712 426.014 115.589 420.52 110.092 417.772L82.6047 405.409L136.204 342.218C141.702 336.723 141.702 327.107 136.204 321.612L115.589 301.006C118.338 167.756 211.793 72.9692 340.982 72.9692C456.427 71.5955 534.764 145.776 534.764 255.674C534.764 344.965 482.539 399.914 397.33 399.914C342.356 399.914 283.259 369.692 276.387 302.38H435.811C442.683 302.38 448.181 298.259 450.929 291.39C453.678 283.148 455.052 274.906 455.052 266.663C455.052 208.967 415.196 169.129 357.474 169.129C294.254 169.129 246.152 221.331 246.152 290.016C246.152 383.429 321.741 431.509 397.33 431.509C499.031 431.509 565 362.823 565 255.674C565 129.292 472.919 40 339.607 40ZM357.474 200.725C398.704 200.725 423.442 225.452 423.442 266.663C423.442 268.037 423.442 269.411 423.442 272.158H279.136C284.633 235.068 312.12 200.725 357.474 200.725Z" fill="#EBF3FE"/>
</g>
<defs>
<filter id="filter0_d_47_212" x="0" y="0" width="605" height="749" filterUnits="userSpaceOnUse" color-interpolation-filters="sRGB">
<feFlood flood-opacity="0" result="BackgroundImageFix"/>
<feColorMatrix in="SourceAlpha" type="matrix" values="0 0 0 0 0 0 0 0 0 0 0 0 0 0 0 0 0 0 127 0" result="hardAlpha"/>
<feOffset/>
<feGaussianBlur stdDeviation="20"/>
<feComposite in2="hardAlpha" operator="out"/>
<feColorMatrix type="matrix" values="0 0 0 0 0.0749561 0 0 0 0 0.0749561 0 0 0 0 0.593056 0 0 0 0.08 0"/>
<feBlend mode="normal" in2="BackgroundImageFix" result="effect1_dropShadow_47_212"/>
<feBlend mode="normal" in="SourceGraphic" in2="effect1_dropShadow_47_212" result="shape"/>
</filter>
</defs>
</svg>
