<svg width="604" height="749" viewBox="0 0 604 749" fill="none" xmlns="http://www.w3.org/2000/svg">
<g filter="url(#filter0_d_333_393)">
<path d="M339.037 40C193.633 40 83.8953 154.018 83.8953 306.501C83.8953 310.622 85.267 314.743 88.0105 317.491L103.099 332.602L44.1152 399.914C40 404.035 40 408.156 40 413.651C40 419.146 44.1152 421.893 48.2304 424.641L86.6387 442.499V453.489C86.6387 458.984 89.3822 464.478 93.4974 467.226L103.099 472.721V485.084C103.099 490.579 105.843 496.074 109.958 498.821L118.188 504.316V555.144C118.188 563.386 125.047 570.255 133.277 570.255H280.052L413.11 704.879C415.853 707.626 419.969 709 424.084 709C425.456 709 428.199 709 429.571 707.626C435.058 704.879 439.173 699.384 439.173 693.889V545.528C439.173 537.285 432.314 530.417 424.084 530.417C415.853 530.417 408.995 537.285 408.995 545.528V655.425L297.885 542.78C295.141 540.033 291.026 538.659 286.911 538.659H151.11V494.7C151.11 489.205 148.366 483.71 144.251 480.963L136.021 475.468V463.105C136.021 457.61 133.277 452.115 129.162 449.368L119.56 443.873V431.509C119.56 426.014 115.445 420.52 109.958 417.772L82.5236 405.409L136.021 342.218C141.508 336.723 141.508 327.107 136.021 321.612L115.445 301.006C118.188 167.756 211.466 72.9692 340.408 72.9692C455.633 71.5955 533.822 145.776 533.822 255.674C533.822 344.965 481.696 399.914 396.649 399.914C341.78 399.914 282.796 369.692 275.937 302.38H435.058C441.916 302.38 447.403 298.259 450.147 291.39C452.89 283.148 454.262 274.906 454.262 266.663C454.262 208.967 414.482 169.129 356.869 169.129C293.77 169.129 245.759 221.331 245.759 290.016C245.759 383.429 321.204 431.509 396.649 431.509C498.157 431.509 564 362.823 564 255.674C564 129.292 472.094 40 339.037 40ZM356.869 200.725C398.021 200.725 422.712 225.452 422.712 266.663C422.712 268.037 422.712 269.411 422.712 272.158H278.681C284.168 235.068 311.602 200.725 356.869 200.725Z" fill="#004494"/>
</g>
<defs>
<filter id="filter0_d_333_393" x="0" y="0" width="604" height="749" filterUnits="userSpaceOnUse" color-interpolation-filters="sRGB">
<feFlood flood-opacity="0" result="BackgroundImageFix"/>
<feColorMatrix in="SourceAlpha" type="matrix" values="0 0 0 0 0 0 0 0 0 0 0 0 0 0 0 0 0 0 127 0" result="hardAlpha"/>
<feOffset/>
<feGaussianBlur stdDeviation="20"/>
<feComposite in2="hardAlpha" operator="out"/>
<feColorMatrix type="matrix" values="0 0 0 0 0 0 0 0 0 0 0 0 0 0 0 0 0 0 0.2 0"/>
<feBlend mode="normal" in2="BackgroundImageFix" result="effect1_dropShadow_333_393"/>
<feBlend mode="normal" in="SourceGraphic" in2="effect1_dropShadow_333_393" result="shape"/>
</filter>
</defs>
</svg>
