<svg width="180" height="58" viewBox="0 0 180 58" fill="none" xmlns="http://www.w3.org/2000/svg">
<path fill-rule="evenodd" clip-rule="evenodd" d="M25.5195 0C13.1109 0 3.74599 9.71615 3.74599 22.71C3.74599 23.0612 3.86305 23.4124 4.09717 23.6465L5.38485 24.9342L0.351186 30.6703C0 31.0214 0 31.3726 0 31.8409C0 32.3091 0.351186 32.5433 0.702372 32.7774L3.98011 34.2992V35.2357C3.98011 35.7039 4.21423 36.1722 4.56542 36.4063L5.38485 36.8745V37.9281C5.38485 38.3964 5.61898 38.8646 5.97016 39.0987L6.67254 39.567V43.8983C6.67254 44.6006 7.25785 45.186 7.96022 45.186H20.4859L31.8409 56.658C32.075 56.8922 32.4262 57.0092 32.7774 57.0092C32.8944 57.0092 33.1286 57.0092 33.2456 56.8922C33.7139 56.658 34.0651 56.1898 34.0651 55.7215V43.0788C34.0651 42.3765 33.4797 41.7912 32.7774 41.7912C32.075 41.7912 31.4897 42.3765 31.4897 43.0788V52.4438L22.0077 42.8447C21.7735 42.6106 21.4224 42.4935 21.0712 42.4935H9.48203V38.7475C9.48203 38.2793 9.2479 37.811 8.89672 37.5769L8.19434 37.1087V36.0551C8.19434 35.5869 7.96022 35.1186 7.60903 34.8845L6.7896 34.4162V33.3627C6.7896 32.8944 6.43841 32.4262 5.97016 32.1921L3.62892 31.1385L8.19434 25.7537C8.66259 25.2854 8.66259 24.466 8.19434 23.9977L6.43841 22.2418C6.67254 10.8868 14.6328 2.80949 25.6366 2.80949C35.4698 2.69243 42.1423 9.01378 42.1423 18.3787C42.1423 25.9878 37.694 30.6703 30.4361 30.6703C25.7537 30.6703 20.72 28.0949 20.1347 22.3589H33.7139C34.2992 22.3589 34.7674 22.0077 35.0016 21.4224C35.2357 20.72 35.3527 20.0176 35.3527 19.3152C35.3527 14.3986 31.9579 11.0038 27.0413 11.0038C21.6565 11.0038 17.5593 15.4522 17.5593 21.3053C17.5593 29.2655 23.9977 33.3627 30.4361 33.3627C39.0987 33.3627 44.7177 27.5096 44.7177 18.3787C44.7177 7.60903 36.8745 0 25.5195 0ZM27.0413 13.6963C30.5532 13.6963 32.6603 15.8034 32.6603 19.3152V19.7835H20.3688C20.837 16.6228 23.1783 13.6963 27.0413 13.6963ZM66.3742 11.1209C60.9893 11.1209 56.8922 15.5692 56.8922 21.4223C56.8922 25.7536 58.6481 29.2655 61.8088 31.2556C63.4477 32.3091 65.5548 32.7774 67.5448 32.7774C69.5349 32.7774 71.5249 32.3091 73.515 31.3726C74.2174 31.0214 74.4515 30.202 74.1003 29.6167C73.7491 28.9143 72.9297 28.6802 72.3444 29.0314C69.3008 30.5532 65.7889 30.5532 63.2135 29.0314C61.1064 27.7437 59.8187 25.4025 59.5846 22.593H73.1638C73.7491 22.593 74.2174 22.2418 74.4515 21.6565C74.6856 20.9541 74.8027 20.2517 74.8027 19.5494C74.6856 14.3986 71.2908 11.1209 66.3742 11.1209ZM71.9932 19.7835H59.5846C60.1699 16.5057 62.3941 13.6962 66.3742 13.6962C69.8861 13.6962 71.9932 15.8034 71.9932 19.3152V19.7835ZM49.7514 4.09716C49.7514 3.39479 50.3367 2.80948 51.0391 2.80948C51.8585 2.80948 52.4439 3.39479 52.3268 4.09716V31.2556C52.3268 31.9579 51.7415 32.5432 51.0391 32.5432C50.3367 32.5432 49.7514 31.9579 49.7514 31.2556V4.09716ZM99.971 11.238C99.2687 11.238 98.6834 11.8233 98.6834 12.5256V31.2556C98.6834 31.9579 99.2687 32.5432 99.971 32.5432C100.673 32.5432 101.259 31.9579 101.259 31.2556V12.5256C101.259 11.8233 100.673 11.238 99.971 11.238ZM101.668 3.68747C101.698 3.746 101.727 3.80453 101.727 3.86306C101.727 3.9216 101.756 3.98013 101.785 4.03866C101.815 4.09719 101.844 4.15572 101.844 4.21425V4.56544C101.844 4.72152 101.74 4.87759 101.636 5.03367C101.584 5.11172 101.532 5.18976 101.493 5.26781L101.493 5.26787C101.376 5.50197 101.259 5.73607 101.025 5.85312C100.907 6.08724 100.673 6.20431 100.439 6.32137C100.205 6.43843 99.971 6.43843 99.7368 6.43843C99.5027 6.43843 99.2686 6.43843 99.0345 6.32137C98.8004 6.20431 98.6833 6.08726 98.4492 5.85316L98.4492 5.85312C98.3321 5.73607 98.2151 5.502 98.098 5.2679L98.098 5.26781C97.9809 5.03368 97.9809 4.79956 97.9809 4.56544V4.21425C97.9809 4.09719 97.9809 3.98013 98.098 3.86306C98.1565 3.80453 98.1858 3.746 98.215 3.68747C98.2443 3.62894 98.2736 3.57041 98.3321 3.51188C98.3906 3.45335 98.4492 3.42408 98.5077 3.39482C98.5662 3.36555 98.6248 3.33629 98.6833 3.27775C99.3857 2.57538 100.673 2.57538 101.376 3.27775C101.448 3.27775 101.476 3.32247 101.514 3.38427C101.537 3.42246 101.565 3.46717 101.61 3.51188C101.61 3.57041 101.639 3.62894 101.668 3.68747ZM87.5623 21.5394L93.7666 13.228C94.2348 12.6427 94.1178 11.8233 93.5325 11.355C92.9472 10.8868 92.1277 11.0038 91.6595 11.5892L85.8064 19.4323L79.9533 11.5892C79.485 11.0038 78.6656 10.8868 78.0803 11.355C77.495 11.8233 77.3779 12.6427 77.8462 13.228L84.0505 21.4224L77.2609 30.5532C76.7926 31.1385 76.9097 31.958 77.495 32.4262C77.7291 32.6603 77.9632 32.6603 78.3144 32.6603C78.6656 32.6603 79.1339 32.4262 79.368 32.075L85.6893 23.5295L92.0107 32.075C92.2448 32.4262 92.713 32.6603 93.0642 32.6603C93.2984 32.6603 93.6495 32.5433 93.8837 32.4262C94.469 31.958 94.586 31.1385 94.1178 30.5532L87.5623 21.5394ZM110.272 29.9679H121.393C122.096 29.9679 122.564 30.5532 122.564 31.2556C122.564 31.9579 121.979 32.5432 121.276 32.5432H108.516C108.048 32.5432 107.697 32.4262 107.463 32.075C107.229 31.7238 107.112 31.2556 107.229 30.9044L114.487 3.74598C114.721 3.04361 115.423 2.57536 116.126 2.80949C116.828 3.04361 117.296 3.74598 117.062 4.44836L110.272 29.9679ZM133.1 11.355C132.397 11.1209 131.695 11.5891 131.461 12.2915L126.544 31.0214C126.31 31.7238 126.778 32.4262 127.481 32.6603H127.832C128.417 32.6603 129.002 32.3091 129.119 31.7238L134.036 12.9939C134.27 12.1744 133.802 11.4721 133.1 11.355ZM136.846 4.56541C136.846 5.15072 136.611 5.61897 136.26 5.97016C136.026 6.08722 135.792 6.32135 135.675 6.43841C135.441 6.55547 135.207 6.55547 134.973 6.55547C134.387 6.55547 133.919 6.32135 133.568 5.97016C133.334 5.8531 133.217 5.61897 133.1 5.38485C132.982 5.15072 132.982 4.9166 132.982 4.68248C132.982 4.09717 133.217 3.62892 133.568 3.27773C133.568 3.20538 133.613 3.17775 133.674 3.13956C133.713 3.11596 133.757 3.08832 133.802 3.04361C133.86 3.04361 133.919 3.01434 133.978 2.98508C134.036 2.95581 134.095 2.92655 134.153 2.92655C134.27 2.80948 134.387 2.80948 134.504 2.80948C135.207 2.69242 135.792 2.80948 136.26 3.27773C136.333 3.27773 136.36 3.32245 136.398 3.38424C136.422 3.42243 136.45 3.46714 136.494 3.51186C136.611 3.62892 136.728 3.74598 136.728 3.86304C136.728 3.92157 136.758 3.9801 136.787 4.03864C136.816 4.09717 136.846 4.1557 136.846 4.21423V4.56541ZM179.573 11.7062C179.105 11.1209 178.285 11.0038 177.7 11.4721L164.823 21.8906L169.506 4.33129C169.74 3.62892 169.272 2.92654 168.569 2.69242C167.867 2.4583 167.165 2.92654 166.93 3.62892L159.673 30.7873C159.438 31.4897 159.907 32.1921 160.609 32.4262H160.96C161.546 32.4262 162.131 32.075 162.248 31.4897L163.653 26.2219L169.389 21.5394L174.071 31.7238C174.305 32.1921 174.774 32.5432 175.242 32.5432C175.476 32.5432 175.593 32.5432 175.827 32.4262C176.53 32.075 176.764 31.3726 176.53 30.6703L171.496 19.9005L179.339 13.5792C179.924 13.1109 180.041 12.2915 179.573 11.7062ZM142.582 14.3986C144.22 12.5256 146.445 10.8868 149.722 10.8868C151.712 10.8868 153.468 11.5891 155.107 12.9939C156.278 14.1645 156.98 15.9204 156.98 17.9105C156.98 18.6129 156.863 19.6664 156.512 20.837L153.702 31.6068C153.468 32.4262 153 32.7774 152.298 32.7774C151.947 32.7774 151.595 32.5432 151.361 32.3091C151.127 32.075 151.01 31.6068 151.127 31.2556L153.937 20.4859C154.171 19.7835 154.288 18.7299 154.288 18.0276C154.288 16.6228 153.82 15.4522 153 14.6328C152.181 13.8133 150.893 13.3451 149.371 13.3451C145.859 13.3451 142.23 16.6228 141.06 20.72L138.133 31.4897C137.899 32.3091 137.431 32.6603 136.728 32.6603C136.377 32.6603 136.026 32.4262 135.792 32.1921C135.558 31.9579 135.441 31.4897 135.558 31.1385L140.474 12.4086C140.709 11.5891 141.177 11.238 141.879 11.238C142.23 11.238 142.582 11.4721 142.816 11.7062C143.05 11.9403 143.167 12.2915 143.05 12.7598L142.582 14.3986Z" fill="#004494"/>
</svg>
