<svg width="240" height="76" viewBox="0 0 240 76" fill="none" xmlns="http://www.w3.org/2000/svg">
<path fill-rule="evenodd" clip-rule="evenodd" d="M34.0205 0C17.4784 0 4.99384 12.9528 4.99384 30.2752C4.99384 30.7433 5.1499 31.2115 5.46201 31.5236L7.17864 33.2402L0.468173 40.8871C0 41.3552 0 41.8234 0 42.4476C0 43.0719 0.468173 43.384 0.936345 43.6961L5.30596 45.7248V46.9733C5.30596 47.5975 5.61807 48.2218 6.08624 48.5339L7.17864 49.1581V50.5626C7.17864 51.1869 7.49076 51.8111 7.95893 52.1232L8.89528 52.7474V58.5216C8.89528 59.4579 9.67557 60.2382 10.6119 60.2382H27.3101L42.4476 75.5318C42.7598 75.8439 43.2279 76 43.6961 76C43.8522 76 44.1643 76 44.3203 75.8439C44.9446 75.5318 45.4127 74.9076 45.4127 74.2834V57.4292C45.4127 56.4928 44.6324 55.7125 43.6961 55.7125C42.7598 55.7125 41.9795 56.4928 41.9795 57.4292V69.9138L29.3388 57.117C29.0267 56.8049 28.5585 56.6489 28.0904 56.6489H12.6407V51.655C12.6407 51.0308 12.3285 50.4066 11.8604 50.0945L10.924 49.4702V48.0657C10.924 47.4415 10.6119 46.8172 10.1437 46.5051L9.05134 45.8809V44.4764C9.05134 43.8522 8.58316 43.2279 7.95893 42.9158L4.83778 41.5113L10.924 34.3326C11.5483 33.7084 11.5483 32.616 10.924 31.9918L8.58316 29.6509C8.89528 14.5133 19.5072 3.74538 34.1766 3.74538C47.2854 3.58932 56.1807 12.0164 56.1807 24.501C56.1807 34.6448 50.2505 40.8871 40.575 40.8871C34.3326 40.8871 27.6222 37.4538 26.8419 29.807H44.9446C45.7248 29.807 46.3491 29.3388 46.6612 28.5585C46.9733 27.6222 47.1294 26.6858 47.1294 25.7495C47.1294 19.1951 42.6037 14.6694 36.0493 14.6694C28.8706 14.6694 23.4086 20.5996 23.4086 28.4025C23.4086 39.0144 31.9918 44.4764 40.575 44.4764C52.1232 44.4764 59.614 36.6735 59.614 24.501C59.614 10.1437 49.1581 0 34.0205 0ZM36.0493 18.2587C40.731 18.2587 43.54 21.0678 43.54 25.7495V26.3737H27.154C27.7782 22.1602 30.8994 18.2587 36.0493 18.2587ZM88.4846 14.8254C81.3059 14.8254 75.8439 20.7556 75.8439 28.5585C75.8439 34.3326 78.1848 39.0144 82.3983 41.6673C84.5831 43.0718 87.3922 43.6961 90.0452 43.6961C92.6981 43.6961 95.3511 43.0718 98.0041 41.8234C98.9404 41.3552 99.2525 40.2628 98.7844 39.4825C98.3162 38.5462 97.2238 38.2341 96.4435 38.7022C92.386 40.731 87.7043 40.731 84.271 38.7022C81.462 36.9856 79.7454 33.8645 79.4333 30.1191H97.5359C98.3162 30.1191 98.9404 29.6509 99.2525 28.8706C99.5647 27.9343 99.7207 26.9979 99.7207 26.0616C99.5647 19.1951 95.039 14.8254 88.4846 14.8254ZM95.9753 26.3737H79.4333C80.2135 22.0041 83.1786 18.2587 88.4846 18.2587C93.1663 18.2587 95.9753 21.0677 95.9753 25.7495V26.3737ZM66.3241 5.46199C66.3241 4.52564 67.1044 3.74536 68.0407 3.74536C69.1331 3.74536 69.9134 4.52564 69.7573 5.46199V41.6673C69.7573 42.6037 68.977 43.384 68.0407 43.384C67.1044 43.384 66.3241 42.6037 66.3241 41.6673V5.46199ZM133.273 14.9816C132.337 14.9816 131.556 15.7619 131.556 16.6982V41.6674C131.556 42.6038 132.337 43.384 133.273 43.384C134.209 43.384 134.99 42.6038 134.99 41.6674V16.6982C134.99 15.7619 134.209 14.9816 133.273 14.9816ZM135.536 4.91582C135.575 4.99385 135.614 5.07188 135.614 5.14991C135.614 5.22794 135.653 5.30597 135.692 5.384C135.731 5.46202 135.77 5.54005 135.77 5.61808V6.08626C135.77 6.29434 135.632 6.50242 135.493 6.7105C135.423 6.81453 135.354 6.91857 135.302 7.0226C135.146 7.33471 134.99 7.64683 134.678 7.80289C134.522 8.115 134.21 8.27106 133.898 8.42712C133.585 8.58317 133.273 8.58317 132.961 8.58317C132.649 8.58317 132.337 8.58317 132.025 8.42712C131.713 8.27106 131.557 8.115 131.245 7.80289C131.089 7.64683 130.932 7.33471 130.776 7.0226C130.62 6.71048 130.62 6.39837 130.62 6.08626V5.61808C130.62 5.46203 130.62 5.30597 130.776 5.14991C130.854 5.07188 130.893 4.99385 130.932 4.91582C130.971 4.8378 131.01 4.75977 131.089 4.68174C131.167 4.60371 131.245 4.5647 131.323 4.52568C131.401 4.48667 131.479 4.44765 131.557 4.36962C132.493 3.43328 134.21 3.43328 135.146 4.36962C135.242 4.36962 135.279 4.42923 135.33 4.51162C135.362 4.56253 135.399 4.62213 135.458 4.68174C135.458 4.75977 135.497 4.8378 135.536 4.91582ZM116.731 28.7146L125.002 17.6346C125.626 16.8543 125.47 15.7619 124.69 15.1376C123.91 14.5134 122.817 14.6695 122.193 15.4497L114.39 25.9056L106.587 15.4497C105.963 14.6695 104.871 14.5134 104.091 15.1376C103.31 15.7619 103.154 16.8543 103.778 17.6346L112.049 28.5586L102.998 40.7311C102.374 41.5113 102.53 42.6037 103.31 43.228C103.622 43.5401 103.934 43.5401 104.403 43.5401C104.871 43.5401 105.495 43.228 105.807 42.7598L114.234 31.3676L122.661 42.7598C122.974 43.228 123.598 43.5401 124.066 43.5401C124.378 43.5401 124.846 43.384 125.158 43.228C125.939 42.6037 126.095 41.5113 125.47 40.7311L116.731 28.7146ZM147.006 39.9508H161.832C162.768 39.9508 163.392 40.731 163.392 41.6674C163.392 42.6037 162.612 43.384 161.676 43.384H144.665C144.041 43.384 143.573 43.228 143.261 42.7598C142.949 42.2916 142.793 41.6674 142.949 41.1992L152.624 4.99388C152.936 4.05753 153.873 3.4333 154.809 3.74542C155.746 4.05753 156.37 4.99388 156.058 5.93022L147.006 39.9508ZM177.437 15.1375C176.501 14.8254 175.564 15.4497 175.252 16.386L168.698 41.3552C168.386 42.2915 169.01 43.2279 169.946 43.54H170.415C171.195 43.54 171.975 43.0718 172.131 42.2915L178.686 17.3223C178.998 16.2299 178.373 15.2936 177.437 15.1375ZM182.431 6.08618C182.431 6.86647 182.119 7.49069 181.65 7.95887C181.338 8.11493 181.026 8.42704 180.87 8.5831C180.558 8.73915 180.246 8.73915 179.934 8.73915C179.153 8.73915 178.529 8.42704 178.061 7.95887C177.749 7.80281 177.593 7.49069 177.437 7.17858C177.281 6.86646 177.281 6.55435 177.281 6.24224C177.281 5.46195 177.593 4.83772 178.061 4.36954C178.061 4.2731 178.121 4.23626 178.203 4.18535C178.254 4.15388 178.314 4.11704 178.373 4.05743C178.451 4.05743 178.529 4.01842 178.607 3.9794C178.685 3.94039 178.763 3.90137 178.841 3.90137C178.997 3.74531 179.153 3.74532 179.309 3.74532C180.246 3.58926 181.026 3.74531 181.65 4.36954C181.747 4.36954 181.784 4.42915 181.835 4.51153C181.866 4.56244 181.903 4.62205 181.962 4.68166C182.119 4.83772 182.275 4.99377 182.275 5.14983C182.275 5.22786 182.314 5.30589 182.353 5.38392C182.392 5.46195 182.431 5.53998 182.431 5.618V6.08618ZM239.392 15.6059C238.767 14.8256 237.675 14.6695 236.895 15.2937L219.729 29.1829L225.971 5.77424C226.283 4.83789 225.659 3.90155 224.722 3.58943C223.786 3.27732 222.85 3.90155 222.538 4.83789L212.862 41.0432C212.55 41.9796 213.174 42.9159 214.11 43.228H214.579C215.359 43.228 216.139 42.7599 216.295 41.9796L218.168 34.957L225.815 28.7147L232.057 42.2917C232.369 42.9159 232.993 43.3841 233.618 43.3841C233.93 43.3841 234.086 43.3841 234.398 43.228C235.334 42.7599 235.646 41.8235 235.334 40.8872L228.624 26.5299L239.08 18.1028C239.86 17.4785 240.016 16.3861 239.392 15.6059ZM190.079 19.195C192.263 16.6981 195.228 14.5133 199.598 14.5133C202.251 14.5133 204.592 15.4497 206.777 17.3224C208.337 18.8829 209.274 21.2238 209.274 23.8768C209.274 24.8131 209.118 26.2176 208.649 27.7782L204.904 42.1355C204.592 43.2279 203.968 43.6961 203.031 43.6961C202.563 43.6961 202.095 43.384 201.783 43.0718C201.471 42.7597 201.315 42.1355 201.471 41.6673L205.216 27.31C205.528 26.3737 205.684 24.9692 205.684 24.0328C205.684 22.1601 205.06 20.5996 203.968 19.5072C202.875 18.4148 201.159 17.7905 199.13 17.7905C194.448 17.7905 189.61 22.1601 188.05 27.6222L184.148 41.9794C183.836 43.0718 183.212 43.54 182.276 43.54C181.807 43.54 181.339 43.2279 181.027 42.9158C180.715 42.6037 180.559 41.9794 180.715 41.5113L187.269 16.5421C187.582 15.4497 188.206 14.9815 189.142 14.9815C189.61 14.9815 190.079 15.2936 190.391 15.6057C190.703 15.9178 190.859 16.386 190.703 17.0102L190.079 19.195Z" fill="white" fill-opacity="0.8"/>
</svg>
